<?xml version="1.0" encoding="UTF-8" standalone="no"?>
<!DOCTYPE svg PUBLIC "-//W3C//DTD SVG 1.1//EN"
 "http://www.w3.org/Graphics/SVG/1.1/DTD/svg11.dtd">
<!-- Generated by graphviz version 2.43.0 (0)
 -->
<!-- Title: %3 Pages: 1 -->
<svg width="566pt" height="165pt"
 viewBox="0.00 0.00 566.00 164.74" xmlns="http://www.w3.org/2000/svg" xmlns:xlink="http://www.w3.org/1999/xlink">
<g id="graph0" class="graph" transform="scale(1 1) rotate(0) translate(36 128.74)">
<title>%3</title>
<polygon fill="dimgray" stroke="transparent" points="-36,36 -36,-128.74 530,-128.74 530,36 -36,36"/>
<text text-anchor="middle" x="247" y="-77.54" font-family="Helvetica,sans-Serif" font-size="14.00">Sweep&#39;s Plan &amp; Progress</text>
<!-- start -->
<g id="node1" class="node">
<title>start</title>
</g>
<!-- 9df04cec&#45;f3b5&#45;478a&#45;a327&#45;9bbfdb16652a -->
<g id="node3" class="node">
<title>9df04cec&#45;f3b5&#45;478a&#45;a327&#45;9bbfdb16652a</title>
<ellipse fill="#0ee832" stroke="black" cx="145.5" cy="-26.87" rx="92.76" ry="26.74"/>
<text text-anchor="middle" x="145.5" y="-30.67" font-family="Helvetica,sans-Serif" font-size="14.00">✓ Create</text>
<text text-anchor="middle" x="145.5" y="-15.67" font-family="Helvetica,sans-Serif" font-size="14.00">src/Puzzle.svelte</text>
</g>
<!-- start&#45;&gt;9df04cec&#45;f3b5&#45;478a&#45;a327&#45;9bbfdb16652a -->
<g id="edge2" class="edge">
<title>start&#45;&gt;9df04cec&#45;f3b5&#45;478a&#45;a327&#45;9bbfdb16652a</title>
<path fill="none" stroke="black" d="M1.15,-26.87C4.59,-26.87 21.37,-26.87 42.35,-26.87"/>
<polygon fill="black" stroke="black" points="42.6,-30.37 52.6,-26.87 42.6,-23.37 42.6,-30.37"/>
<text text-anchor="middle" x="26.93" y="-33.67" font-family="Helvetica,sans-Serif" font-size="14.00">Start</text>
</g>
<!-- end -->
<g id="node2" class="node">
<title>end</title>
</g>
<!-- 3d142d01&#45;a4ee&#45;4185&#45;baac&#45;9a04a43edb6b -->
<g id="node4" class="node">
<title>3d142d01&#45;a4ee&#45;4185&#45;baac&#45;9a04a43edb6b</title>
<ellipse fill="#0ee832" stroke="black" cx="354.5" cy="-26.87" rx="81.13" ry="26.74"/>
<text text-anchor="middle" x="354.5" y="-30.67" font-family="Helvetica,sans-Serif" font-size="14.00">✓ Modify</text>
<text text-anchor="middle" x="354.5" y="-15.67" font-family="Helvetica,sans-Serif" font-size="14.00">src/App.svelte</text>
</g>
<!-- 9df04cec&#45;f3b5&#45;478a&#45;a327&#45;9bbfdb16652a&#45;&gt;3d142d01&#45;a4ee&#45;4185&#45;baac&#45;9a04a43edb6b -->
<g id="edge1" class="edge">
<title>9df04cec&#45;f3b5&#45;478a&#45;a327&#45;9bbfdb16652a&#45;&gt;3d142d01&#45;a4ee&#45;4185&#45;baac&#45;9a04a43edb6b</title>
<path fill="none" stroke="black" d="M238.16,-26.87C246.45,-26.87 254.75,-26.87 263.04,-26.87"/>
<polygon fill="black" stroke="black" points="263.15,-30.37 273.15,-26.87 263.15,-23.37 263.15,-30.37"/>
</g>
<!-- 3d142d01&#45;a4ee&#45;4185&#45;baac&#45;9a04a43edb6b&#45;&gt;end -->
<g id="edge3" class="edge">
<title>3d142d01&#45;a4ee&#45;4185&#45;baac&#45;9a04a43edb6b&#45;&gt;end</title>
<path fill="none" stroke="black" d="M436.16,-26.87C454.58,-26.87 471.83,-26.87 482.5,-26.87"/>
<polygon fill="black" stroke="black" points="482.81,-30.37 492.81,-26.87 482.81,-23.37 482.81,-30.37"/>
<text text-anchor="middle" x="464.41" y="-33.67" font-family="Helvetica,sans-Serif" font-size="14.00">Finish</text>
</g>
</g>
</svg>
