<?xml version="1.0" encoding="UTF-8" standalone="no"?>
<!DOCTYPE svg PUBLIC "-//W3C//DTD SVG 1.1//EN"
 "http://www.w3.org/Graphics/SVG/1.1/DTD/svg11.dtd">
<!-- Generated by graphviz version 2.43.0 (0)
 -->
<!-- Title: %3 Pages: 1 -->
<svg width="764pt" height="165pt"
 viewBox="0.00 0.00 764.00 164.74" xmlns="http://www.w3.org/2000/svg" xmlns:xlink="http://www.w3.org/1999/xlink">
<g id="graph0" class="graph" transform="scale(1 1) rotate(0) translate(36 128.74)">
<title>%3</title>
<polygon fill="dimgray" stroke="transparent" points="-36,36 -36,-128.74 728,-128.74 728,36 -36,36"/>
<text text-anchor="middle" x="346" y="-77.54" font-family="Helvetica,sans-Serif" font-size="14.00">Sweep&#39;s Plan &amp; Progress</text>
<!-- start -->
<g id="node1" class="node">
<title>start</title>
</g>
<!-- 61bc2134&#45;33dd&#45;44c0&#45;afb2&#45;5f57ba5d89ac -->
<g id="node3" class="node">
<title>61bc2134&#45;33dd&#45;44c0&#45;afb2&#45;5f57ba5d89ac</title>
<ellipse fill="#0ee832" stroke="black" cx="145.5" cy="-26.87" rx="92.76" ry="26.74"/>
<text text-anchor="middle" x="145.5" y="-30.67" font-family="Helvetica,sans-Serif" font-size="14.00">✓ Create</text>
<text text-anchor="middle" x="145.5" y="-15.67" font-family="Helvetica,sans-Serif" font-size="14.00">src/Puzzle.svelte</text>
</g>
<!-- start&#45;&gt;61bc2134&#45;33dd&#45;44c0&#45;afb2&#45;5f57ba5d89ac -->
<g id="edge3" class="edge">
<title>start&#45;&gt;61bc2134&#45;33dd&#45;44c0&#45;afb2&#45;5f57ba5d89ac</title>
<path fill="none" stroke="black" d="M1.15,-26.87C4.59,-26.87 21.37,-26.87 42.35,-26.87"/>
<polygon fill="black" stroke="black" points="42.6,-30.37 52.6,-26.87 42.6,-23.37 42.6,-30.37"/>
<text text-anchor="middle" x="26.93" y="-33.67" font-family="Helvetica,sans-Serif" font-size="14.00">Start</text>
</g>
<!-- end -->
<g id="node2" class="node">
<title>end</title>
</g>
<!-- 0d774c11&#45;a5c3&#45;420b&#45;9c1d&#45;59f8bd0ae1e0 -->
<g id="node4" class="node">
<title>0d774c11&#45;a5c3&#45;420b&#45;9c1d&#45;59f8bd0ae1e0</title>
<ellipse fill="#0ee832" stroke="black" cx="354.5" cy="-26.87" rx="81.13" ry="26.74"/>
<text text-anchor="middle" x="354.5" y="-30.67" font-family="Helvetica,sans-Serif" font-size="14.00">✓ Modify</text>
<text text-anchor="middle" x="354.5" y="-15.67" font-family="Helvetica,sans-Serif" font-size="14.00">src/App.svelte</text>
</g>
<!-- 61bc2134&#45;33dd&#45;44c0&#45;afb2&#45;5f57ba5d89ac&#45;&gt;0d774c11&#45;a5c3&#45;420b&#45;9c1d&#45;59f8bd0ae1e0 -->
<g id="edge1" class="edge">
<title>61bc2134&#45;33dd&#45;44c0&#45;afb2&#45;5f57ba5d89ac&#45;&gt;0d774c11&#45;a5c3&#45;420b&#45;9c1d&#45;59f8bd0ae1e0</title>
<path fill="none" stroke="black" d="M238.16,-26.87C246.45,-26.87 254.75,-26.87 263.04,-26.87"/>
<polygon fill="black" stroke="black" points="263.15,-30.37 273.15,-26.87 263.15,-23.37 263.15,-30.37"/>
</g>
<!-- 14f0fc2b&#45;7d0f&#45;4b3b&#45;b984&#45;48779e9c29a8 -->
<g id="node5" class="node">
<title>14f0fc2b&#45;7d0f&#45;4b3b&#45;b984&#45;48779e9c29a8</title>
<ellipse fill="#ee0000" stroke="black" cx="552.5" cy="-26.87" rx="81.13" ry="26.74"/>
<text text-anchor="middle" x="552.5" y="-30.67" font-family="Helvetica,sans-Serif" font-size="14.00">✗ Modify</text>
<text text-anchor="middle" x="552.5" y="-15.67" font-family="Helvetica,sans-Serif" font-size="14.00">src/App.svelte</text>
</g>
<!-- 0d774c11&#45;a5c3&#45;420b&#45;9c1d&#45;59f8bd0ae1e0&#45;&gt;14f0fc2b&#45;7d0f&#45;4b3b&#45;b984&#45;48779e9c29a8 -->
<g id="edge2" class="edge">
<title>0d774c11&#45;a5c3&#45;420b&#45;9c1d&#45;59f8bd0ae1e0&#45;&gt;14f0fc2b&#45;7d0f&#45;4b3b&#45;b984&#45;48779e9c29a8</title>
<path fill="none" stroke="black" d="M436.1,-26.87C444.39,-26.87 452.69,-26.87 460.99,-26.87"/>
<polygon fill="black" stroke="black" points="461.11,-30.37 471.11,-26.87 461.11,-23.37 461.11,-30.37"/>
</g>
<!-- 14f0fc2b&#45;7d0f&#45;4b3b&#45;b984&#45;48779e9c29a8&#45;&gt;end -->
<g id="edge4" class="edge">
<title>14f0fc2b&#45;7d0f&#45;4b3b&#45;b984&#45;48779e9c29a8&#45;&gt;end</title>
<path fill="none" stroke="black" d="M634.16,-26.87C652.58,-26.87 669.83,-26.87 680.5,-26.87"/>
<polygon fill="black" stroke="black" points="680.81,-30.37 690.81,-26.87 680.81,-23.37 680.81,-30.37"/>
<text text-anchor="middle" x="662.41" y="-33.67" font-family="Helvetica,sans-Serif" font-size="14.00">Finish</text>
</g>
</g>
</svg>
